<?xml version="1.0" encoding="utf-8"?>
<!-- Generator: Adobe Illustrator 16.0.0, SVG Export Plug-In . SVG Version: 6.00 Build 0)  -->
<!DOCTYPE svg PUBLIC "-//W3C//DTD SVG 1.1//EN" "http://www.w3.org/Graphics/SVG/1.1/DTD/svg11.dtd">
<svg version="1.1" id="Layer_1" xmlns="http://www.w3.org/2000/svg" xmlns:xlink="http://www.w3.org/1999/xlink" x="0px" y="0px"
	 width="579.931px" height="86.417px" viewBox="0 0 579.931 86.417" enable-background="new 0 0 579.931 86.417"
	 xml:space="preserve">
<image overflow="visible" width="729" height="101" xlink:href="../../../Library/Caches/TemporaryItems/png.png"  transform="matrix(1 0 0 1 -97.0693 -0.5835)">
</image>
<g>
	<defs>
		<rect id="SVGID_1_" x="2.431" y="-0.083" width="590" height="109"/>
	</defs>
	<clipPath id="SVGID_2_">
		<use xlink:href="#SVGID_1_"  overflow="visible"/>
	</clipPath>
	<path clip-path="url(#SVGID_2_)" fill="none" stroke="#46C7EA" stroke-width="2" stroke-miterlimit="10" d="M122.283,29.113
		l-0.013,0.008c-0.006,0-0.011-0.001-0.018-0.001c-1.988,0-3.704,1.09-4.634,2.694l-0.019,0.012l-12.141,21.028l-0.001,0.051
		c-0.454,0.79-0.733,1.69-0.733,2.665c0,0.933,0.259,1.795,0.676,2.559l-0.001,0.063l12.184,21.102l0.044,0.025
		c0.928,1.614,2.649,2.714,4.645,2.714c0.009,0,0.018-0.003,0.026-0.003l0.007,0.004h24.344l0.007-0.004
		c1.963-0.009,3.661-1.079,4.592-2.657l0.016-0.01L163.22,58.65c0.602-0.868,0.958-1.918,0.958-3.054
		c0-0.962-0.274-1.854-0.718-2.636l0.001-0.047l-12.2-21.128l-0.017-0.011c-0.935-1.583-2.641-2.655-4.613-2.655
		c-0.022,0-0.041,0.005-0.062,0.005l-0.02-0.011H122.283z"/>
	<path clip-path="url(#SVGID_2_)" fill="none" stroke="#46C7EA" stroke-width="2" stroke-miterlimit="10" d="M225.565,29.113
		l-0.013,0.008c-0.006,0-0.011-0.001-0.018-0.001c-1.988,0-3.704,1.09-4.634,2.694l-0.019,0.012l-12.141,21.028l-0.001,0.051
		c-0.454,0.79-0.733,1.69-0.733,2.665c0,0.933,0.259,1.795,0.676,2.559l-0.001,0.063l12.184,21.102l0.044,0.025
		c0.928,1.614,2.649,2.714,4.645,2.714c0.009,0,0.018-0.003,0.026-0.003l0.007,0.004h24.344l0.007-0.004
		c1.963-0.009,3.661-1.079,4.592-2.657l0.016-0.01l11.957-20.713c0.602-0.868,0.958-1.918,0.958-3.054
		c0-0.962-0.274-1.854-0.718-2.636l0.001-0.047l-12.2-21.128l-0.017-0.011c-0.935-1.583-2.641-2.655-4.613-2.655
		c-0.022,0-0.041,0.005-0.062,0.005l-0.02-0.011H225.565z"/>
	<path clip-path="url(#SVGID_2_)" fill="none" stroke="#46C7EA" stroke-width="2" stroke-miterlimit="10" d="M434.065,29.113
		l-0.014,0.008c-0.006,0-0.011-0.001-0.018-0.001c-1.987,0-3.703,1.09-4.634,2.694l-0.019,0.012l-12.141,21.028l-0.002,0.051
		c-0.453,0.79-0.732,1.69-0.732,2.665c0,0.933,0.259,1.795,0.676,2.559l-0.001,0.063l12.184,21.102l0.044,0.025
		c0.928,1.614,2.648,2.714,4.645,2.714c0.009,0,0.018-0.003,0.025-0.003l0.008,0.004h24.344l0.007-0.004
		c1.964-0.009,3.661-1.079,4.592-2.657l0.017-0.01l11.957-20.713c0.602-0.868,0.958-1.918,0.958-3.054
		c0-0.962-0.274-1.854-0.718-2.636l0.001-0.047l-12.2-21.128l-0.018-0.011c-0.935-1.583-2.641-2.655-4.612-2.655
		c-0.022,0-0.04,0.005-0.062,0.005l-0.021-0.011H434.065z"/>
	<path clip-path="url(#SVGID_2_)" fill="none" stroke="#46C7EA" stroke-width="2" stroke-miterlimit="10" d="M174.065-1.387
		l-0.013,0.008c-0.006,0-0.011-0.001-0.018-0.001c-1.988,0-3.704,1.09-4.634,2.694l-0.019,0.012l-12.141,21.028l-0.001,0.051
		c-0.454,0.79-0.733,1.69-0.733,2.665c0,0.933,0.259,1.795,0.676,2.559l-0.001,0.063l12.184,21.102l0.044,0.025
		c0.928,1.614,2.649,2.714,4.645,2.714c0.009,0,0.018-0.003,0.026-0.003l0.007,0.004h24.344l0.007-0.004
		c1.963-0.009,3.661-1.079,4.592-2.657l0.016-0.01l11.957-20.713c0.602-0.868,0.958-1.918,0.958-3.054
		c0-0.962-0.274-1.854-0.718-2.636l0.001-0.047l-12.2-21.128l-0.017-0.011c-0.935-1.583-2.641-2.655-4.613-2.655
		c-0.022,0-0.041,0.005-0.062,0.005l-0.02-0.011H174.065z"/>
	<path clip-path="url(#SVGID_2_)" fill="none" stroke="#46C7EA" stroke-width="2" stroke-miterlimit="10" d="M70.565-1.387
		l-0.013,0.008c-0.006,0-0.011-0.001-0.018-0.001c-1.988,0-3.704,1.09-4.634,2.694l-0.019,0.012L53.741,22.354l-0.001,0.051
		c-0.454,0.79-0.733,1.69-0.733,2.665c0,0.933,0.259,1.795,0.676,2.559l-0.001,0.063l12.184,21.102l0.044,0.025
		c0.928,1.614,2.649,2.714,4.645,2.714c0.009,0,0.018-0.003,0.026-0.003l0.007,0.004h24.344l0.007-0.004
		c1.963-0.009,3.661-1.079,4.592-2.657l0.016-0.01l11.957-20.713c0.602-0.868,0.958-1.918,0.958-3.054
		c0-0.962-0.274-1.854-0.718-2.636l0.001-0.047l-12.2-21.128l-0.017-0.011c-0.935-1.583-2.641-2.655-4.613-2.655
		c-0.022,0-0.041,0.005-0.062,0.005l-0.02-0.011H70.565z"/>
	<path clip-path="url(#SVGID_2_)" fill="none" stroke="#46C7EA" stroke-width="2" stroke-miterlimit="10" d="M18.559-32
		l-0.013,0.008c-0.006,0-0.011-0.001-0.018-0.001c-1.988,0-3.704,1.09-4.634,2.694l-0.019,0.012L1.734-8.259L1.733-8.208
		C1.279-7.418,1-6.518,1-5.543c0,0.933,0.259,1.795,0.676,2.559L1.675-2.921L13.858,18.18l0.044,0.025
		c0.928,1.614,2.649,2.714,4.645,2.714c0.009,0,0.018-0.003,0.026-0.003l0.007,0.004h24.344l0.007-0.004
		c1.963-0.009,3.661-1.079,4.592-2.657l0.016-0.01L59.496-2.463c0.602-0.868,0.958-1.918,0.958-3.054
		c0-0.962-0.274-1.854-0.718-2.636L59.737-8.2l-12.2-21.128l-0.017-0.011c-0.935-1.583-2.641-2.655-4.613-2.655
		c-0.022,0-0.041,0.005-0.062,0.005L42.825-32H18.559z"/>
	<path clip-path="url(#SVGID_2_)" fill="none" stroke="#46C7EA" stroke-width="2" stroke-miterlimit="10" d="M122.059-32
		l-0.013,0.008c-0.006,0-0.011-0.001-0.018-0.001c-1.988,0-3.704,1.09-4.634,2.694l-0.019,0.012L105.234-8.259l-0.001,0.051
		c-0.454,0.79-0.733,1.69-0.733,2.665c0,0.933,0.259,1.795,0.676,2.559l-0.001,0.063l12.184,21.102l0.044,0.025
		c0.928,1.614,2.649,2.714,4.645,2.714c0.009,0,0.018-0.003,0.026-0.003l0.007,0.004h24.344l0.007-0.004
		c1.963-0.009,3.661-1.079,4.592-2.657l0.016-0.01l11.957-20.713c0.602-0.868,0.958-1.918,0.958-3.054
		c0-0.962-0.274-1.854-0.718-2.636l0.001-0.047l-12.2-21.128l-0.017-0.011c-0.935-1.583-2.641-2.655-4.613-2.655
		c-0.022,0-0.041,0.005-0.062,0.005L146.325-32H122.059z"/>
	<path clip-path="url(#SVGID_2_)" fill="none" stroke="#46C7EA" stroke-width="2" stroke-miterlimit="10" d="M226.059-32
		l-0.013,0.008c-0.006,0-0.011-0.001-0.018-0.001c-1.988,0-3.704,1.09-4.634,2.694l-0.019,0.012L209.234-8.259l-0.001,0.051
		c-0.454,0.79-0.733,1.69-0.733,2.665c0,0.933,0.259,1.795,0.676,2.559l-0.001,0.063l12.184,21.102l0.044,0.025
		c0.928,1.614,2.649,2.714,4.645,2.714c0.009,0,0.018-0.003,0.026-0.003l0.007,0.004h24.344l0.007-0.004
		c1.963-0.009,3.661-1.079,4.592-2.657l0.016-0.01l11.957-20.713c0.602-0.868,0.958-1.918,0.958-3.054
		c0-0.962-0.274-1.854-0.718-2.636l0.001-0.047l-12.2-21.128l-0.017-0.011c-0.935-1.583-2.641-2.655-4.613-2.655
		c-0.022,0-0.041,0.005-0.062,0.005L250.325-32H226.059z"/>
	<path clip-path="url(#SVGID_2_)" fill="none" stroke="#46C7EA" stroke-width="2" stroke-miterlimit="10" d="M330.059-32
		l-0.013,0.008c-0.007,0-0.012-0.001-0.018-0.001c-1.988,0-3.705,1.09-4.635,2.694l-0.019,0.012L313.233-8.259v0.051
		c-0.454,0.79-0.733,1.69-0.733,2.665c0,0.933,0.259,1.795,0.676,2.559l-0.001,0.063l12.184,21.102l0.044,0.025
		c0.929,1.614,2.649,2.714,4.645,2.714c0.009,0,0.018-0.003,0.026-0.003l0.006,0.004h24.345l0.007-0.004
		c1.963-0.009,3.66-1.079,4.592-2.657l0.016-0.01l11.957-20.713c0.603-0.868,0.959-1.918,0.959-3.054
		c0-0.962-0.274-1.854-0.718-2.636l0.001-0.047l-12.2-21.128l-0.017-0.011c-0.936-1.583-2.641-2.655-4.613-2.655
		c-0.021,0-0.041,0.005-0.062,0.005L354.325-32H330.059z"/>
	<path clip-path="url(#SVGID_2_)" fill="none" stroke="#46C7EA" stroke-width="2" stroke-miterlimit="10" d="M434.059-32
		l-0.013,0.008c-0.007,0-0.012-0.001-0.018-0.001c-1.988,0-3.705,1.09-4.635,2.694l-0.019,0.012L417.233-8.259v0.051
		c-0.454,0.79-0.733,1.69-0.733,2.665c0,0.933,0.259,1.795,0.676,2.559l-0.001,0.063l12.184,21.102l0.044,0.025
		c0.929,1.614,2.649,2.714,4.645,2.714c0.009,0,0.018-0.003,0.026-0.003l0.006,0.004h24.345l0.007-0.004
		c1.963-0.009,3.66-1.079,4.592-2.657l0.016-0.01l11.957-20.713c0.603-0.868,0.959-1.918,0.959-3.054
		c0-0.962-0.274-1.854-0.718-2.636l0.001-0.047l-12.2-21.128l-0.017-0.011c-0.936-1.583-2.641-2.655-4.613-2.655
		c-0.021,0-0.041,0.005-0.062,0.005L458.325-32H434.059z"/>
	<path clip-path="url(#SVGID_2_)" fill="none" stroke="#46C7EA" stroke-width="2" stroke-miterlimit="10" d="M538.059-32
		l-0.013,0.008c-0.007,0-0.012-0.001-0.018-0.001c-1.988,0-3.705,1.09-4.635,2.694l-0.019,0.012L521.233-8.259v0.051
		c-0.454,0.79-0.733,1.69-0.733,2.665c0,0.933,0.259,1.795,0.676,2.559l-0.001,0.063l12.184,21.102l0.044,0.025
		c0.929,1.614,2.649,2.714,4.645,2.714c0.009,0,0.018-0.003,0.026-0.003l0.006,0.004h24.345l0.007-0.004
		c1.963-0.009,3.66-1.079,4.592-2.657l0.016-0.01l11.957-20.713c0.603-0.868,0.959-1.918,0.959-3.054
		c0-0.962-0.274-1.854-0.718-2.636l0.001-0.047l-12.2-21.128l-0.017-0.011c-0.936-1.583-2.641-2.655-4.613-2.655
		c-0.021,0-0.041,0.005-0.062,0.005L562.325-32H538.059z"/>
	<path clip-path="url(#SVGID_2_)" fill="none" stroke="#46C7EA" stroke-width="2" stroke-miterlimit="10" d="M277.565-1.387
		l-0.014,0.008c-0.006,0-0.011-0.001-0.018-0.001c-1.987,0-3.703,1.09-4.634,2.694l-0.019,0.012l-12.141,21.028l-0.001,0.051
		c-0.454,0.79-0.733,1.69-0.733,2.665c0,0.933,0.259,1.795,0.676,2.559l-0.001,0.063l12.184,21.102l0.044,0.025
		c0.928,1.614,2.648,2.714,4.645,2.714c0.009,0,0.018-0.003,0.025-0.003l0.008,0.004h24.344l0.007-0.004
		c1.964-0.009,3.661-1.079,4.592-2.657l0.017-0.01l11.957-20.713c0.602-0.868,0.958-1.918,0.958-3.054
		c0-0.962-0.274-1.854-0.718-2.636l0.001-0.047l-12.2-21.128l-0.018-0.011c-0.935-1.583-2.641-2.655-4.612-2.655
		c-0.022,0-0.04,0.005-0.062,0.005l-0.021-0.011H277.565z"/>
	<path clip-path="url(#SVGID_2_)" fill="none" stroke="#46C7EA" stroke-width="2" stroke-miterlimit="10" d="M381.565-1.387
		l-0.014,0.008c-0.006,0-0.011-0.001-0.018-0.001c-1.987,0-3.703,1.09-4.634,2.694l-0.019,0.012l-12.141,21.028l-0.002,0.051
		c-0.453,0.79-0.732,1.69-0.732,2.665c0,0.933,0.259,1.795,0.676,2.559l-0.001,0.063l12.184,21.102l0.044,0.025
		c0.928,1.614,2.648,2.714,4.645,2.714c0.009,0,0.018-0.003,0.025-0.003l0.008,0.004h24.344l0.007-0.004
		c1.964-0.009,3.661-1.079,4.592-2.657l0.017-0.01l11.957-20.713c0.602-0.868,0.958-1.918,0.958-3.054
		c0-0.962-0.274-1.854-0.718-2.636l0.001-0.047l-12.2-21.128l-0.018-0.011c-0.935-1.583-2.641-2.655-4.612-2.655
		c-0.022,0-0.04,0.005-0.062,0.005l-0.021-0.011H381.565z"/>
	<path clip-path="url(#SVGID_2_)" fill="none" stroke="#46C7EA" stroke-width="2" stroke-miterlimit="10" d="M485.562-1.387
		l-0.014,0.008c-0.006,0-0.011-0.001-0.018-0.001c-1.987,0-3.703,1.09-4.634,2.694l-0.019,0.012l-12.141,21.028l-0.002,0.051
		c-0.453,0.79-0.732,1.69-0.732,2.665c0,0.933,0.259,1.795,0.676,2.559l-0.001,0.063l12.184,21.102l0.044,0.025
		c0.928,1.614,2.648,2.714,4.645,2.714c0.009,0,0.018-0.003,0.025-0.003l0.008,0.004h24.344l0.007-0.004
		c1.964-0.009,3.661-1.079,4.592-2.657l0.017-0.01L526.5,28.15c0.602-0.868,0.958-1.918,0.958-3.054
		c0-0.962-0.274-1.854-0.718-2.636l0.001-0.047l-12.2-21.128l-0.018-0.011c-0.935-1.583-2.641-2.655-4.612-2.655
		c-0.022,0-0.04,0.005-0.062,0.005l-0.021-0.011H485.562z"/>
</g>
<g>
	<path stroke="#000000" stroke-miterlimit="10" d="M132.16,83.702h6.064v0.97h-7.086V72.773h1.022V83.702z"/>
	<path stroke="#000000" stroke-miterlimit="10" d="M140.255,72.773h1.022v11.881h-1.022V72.773z"/>
	<path stroke="#000000" stroke-miterlimit="10" d="M143.748,84.654V72.773h7.086v0.952h-6.064v4.441h5.588v0.97h-5.588v5.518
		H143.748z"/>
	<path stroke="#000000" stroke-miterlimit="10" d="M152.602,84.654V72.773h7.509v0.952h-6.487v4.441h6.011v0.97h-6.011v4.565h6.61
		v0.952H152.602z"/>
	<path stroke="#000000" stroke-miterlimit="10" d="M172.476,72.579c1.128,0,2.467,0.141,3.296,0.512
		c-0.105,0.3-0.229,0.529-0.335,0.793c-1.04-0.299-2.238-0.334-2.538-0.334c-3.79,0-5.165,2.678-5.165,5.182
		c0,2.503,1.375,5.182,5.165,5.182c0.529,0,1.445,0,2.573-0.334c0.106,0.317,0.212,0.529,0.3,0.793
		c-0.829,0.37-2.168,0.511-3.296,0.511c-3.614,0-5.834-2.731-5.834-6.151S168.861,72.579,172.476,72.579z"/>
	<path stroke="#000000" stroke-miterlimit="10" d="M178.475,78.889v5.765h-1.022V72.773h1.022v5.147h7.016v-5.147h1.022v11.881
		h-1.022v-5.765H178.475z"/>
	<path stroke="#000000" stroke-miterlimit="10" d="M187.841,84.654l4.935-11.881h1.234l4.935,11.881h-1.075l-1.181-2.891h-6.61
		l-1.164,2.891H187.841z M190.432,80.811h5.906l-2.944-7.086L190.432,80.811z"/>
	<path stroke="#000000" stroke-miterlimit="10" d="M201.296,74.024v10.63h-1.022V72.773h1.427l6.752,10.576V72.773h1.022v11.881
		h-1.252L201.296,74.024z"/>
	<path stroke="#000000" stroke-miterlimit="10" d="M218.154,79.524v-0.97h3.473v5.589c-0.899,0.492-2.697,0.704-3.948,0.704
		c-3.931,0-6.346-2.714-6.346-6.134s2.416-6.135,6.346-6.135c1.233,0,2.45,0.159,3.578,0.812l-0.441,0.847
		c-0.846-0.512-2.115-0.706-2.697-0.706c-4.089,0-5.711,2.68-5.711,5.183s1.763,5.164,5.482,5.164c0.863,0,1.939-0.158,2.855-0.476
		v-3.878H218.154z"/>
	<path stroke="#000000" stroke-miterlimit="10" d="M223.766,72.773h1.023v11.881h-1.023V72.773z"/>
	<path stroke="#000000" stroke-miterlimit="10" d="M228.281,74.024v10.63h-1.022V72.773h1.427l6.751,10.576V72.773h1.022v11.881
		h-1.251L228.281,74.024z"/>
	<path stroke="#000000" stroke-miterlimit="10" d="M245.138,79.524v-0.97h3.473v5.589c-0.899,0.492-2.697,0.704-3.949,0.704
		c-3.93,0-6.345-2.714-6.345-6.134s2.415-6.135,6.345-6.135c1.234,0,2.45,0.159,3.579,0.812l-0.441,0.847
		c-0.846-0.512-2.115-0.706-2.697-0.706c-4.089,0-5.711,2.68-5.711,5.183s1.762,5.164,5.482,5.164c0.863,0,1.939-0.158,2.855-0.476
		v-3.878H245.138z"/>
	<path stroke="#000000" stroke-miterlimit="10" d="M251.332,83.349h1.269l-1.798,3.067h-0.97L251.332,83.349z"/>
	<path stroke="#000000" stroke-miterlimit="10" d="M266.848,81.128c0.229,0.616,0.247,1.022,1.252,3.525h-1.093l-1.357-3.755
		c-0.353-0.775-0.899-1.198-1.939-1.198h-3.331v4.953h-1.021V72.773h4.97c2.839,0,3.438,2.044,3.438,3.597
		c0,0.281-0.053,2.449-2.239,2.996C266.267,79.771,266.39,79.929,266.848,81.128z M264.381,78.749c1.938,0,2.379-1.568,2.379-2.362
		c0-1.321-0.635-2.661-2.557-2.661h-3.824v5.023H264.381z"/>
	<path stroke="#000000" stroke-miterlimit="10" d="M269.798,84.654V72.773h7.509v0.952h-6.486v4.441h6.011v0.97h-6.011v4.565h6.609
		v0.952H269.798z"/>
	<path stroke="#000000" stroke-miterlimit="10" d="M286.743,73.743l-0.405,0.828c-0.829-0.547-2.133-1.021-3.35-1.021
		c-1.287,0-2.485,0.475-2.82,1.762c-0.282,1.393,0.899,1.887,2.045,2.327l3.085,1.198c1.709,0.635,2.062,1.851,2.044,2.627
		c-0.053,2.133-1.868,3.384-4.001,3.384c-1.586,0-3.208-0.458-4.583-1.498c0.158-0.247,0.335-0.616,0.476-0.828
		c0.952,0.723,2.521,1.375,4.054,1.375c1.199,0,2.609-0.547,2.909-1.815c0.282-1.146-0.37-1.869-1.41-2.327l-3.596-1.34
		c-1.428-0.547-2.31-1.622-2.115-3.19c0.247-1.568,1.78-2.645,3.896-2.645C284.275,72.579,285.65,72.932,286.743,73.743z"/>
	<path stroke="#000000" stroke-miterlimit="10" d="M289.039,84.654V72.773h7.509v0.952h-6.486v4.441h6.011v0.97h-6.011v4.565h6.61
		v0.952H289.039z"/>
	<path stroke="#000000" stroke-miterlimit="10" d="M297.647,84.654l4.935-11.881h1.234l4.936,11.881h-1.075l-1.182-2.891h-6.609
		l-1.164,2.891H297.647z M300.237,80.811h5.906l-2.944-7.086L300.237,80.811z"/>
	<path stroke="#000000" stroke-miterlimit="10" d="M317.571,81.128c0.229,0.616,0.246,1.022,1.252,3.525h-1.093l-1.358-3.755
		c-0.352-0.775-0.898-1.198-1.938-1.198h-3.331v4.953h-1.022V72.773h4.971c2.838,0,3.438,2.044,3.438,3.597
		c0,0.281-0.054,2.449-2.239,2.996C316.989,79.771,317.113,79.929,317.571,81.128z M315.104,78.749c1.939,0,2.38-1.568,2.38-2.362
		c0-1.321-0.635-2.661-2.557-2.661h-3.824v5.023H315.104z"/>
	<path stroke="#000000" stroke-miterlimit="10" d="M325.915,72.579c1.128,0,2.468,0.141,3.296,0.512
		c-0.105,0.3-0.229,0.529-0.335,0.793c-1.04-0.299-2.238-0.334-2.538-0.334c-3.79,0-5.165,2.678-5.165,5.182
		c0,2.503,1.375,5.182,5.165,5.182c0.528,0,1.445,0,2.573-0.334c0.106,0.317,0.212,0.529,0.3,0.793
		c-0.828,0.37-2.168,0.511-3.296,0.511c-3.614,0-5.835-2.731-5.835-6.151S322.301,72.579,325.915,72.579z"/>
	<path stroke="#000000" stroke-miterlimit="10" d="M331.914,78.889v5.765h-1.022V72.773h1.022v5.147h7.016v-5.147h1.022v11.881
		h-1.022v-5.765H331.914z"/>
	<path stroke="#000000" stroke-miterlimit="10" d="M347.153,84.654V72.773h4.089c3.613,0,5.817,1.974,5.817,5.94
		c0,3.966-2.204,5.94-5.817,5.94H347.153z M351.312,83.702c2.592,0,4.742-1.445,4.742-4.988c0-3.596-2.027-4.988-4.795-4.988h-3.066
		v9.977H351.312z"/>
	<path stroke="#000000" stroke-miterlimit="10" d="M366.231,81.128c0.229,0.616,0.247,1.022,1.252,3.525h-1.093l-1.358-3.755
		c-0.353-0.775-0.898-1.198-1.938-1.198h-3.332v4.953h-1.021V72.773h4.971c2.838,0,3.438,2.044,3.438,3.597
		c0,0.281-0.054,2.449-2.239,2.996C365.649,79.771,365.773,79.929,366.231,81.128z M363.764,78.749c1.939,0,2.38-1.568,2.38-2.362
		c0-1.321-0.635-2.661-2.557-2.661h-3.825v5.023H363.764z"/>
	<path stroke="#000000" stroke-miterlimit="10" d="M369.357,72.773h1.022v11.881h-1.022V72.773z"/>
	<path stroke="#000000" stroke-miterlimit="10" d="M372.92,72.773l4.09,10.858c1.27-3.525,2.803-7.298,4.071-10.858h1.04
		l-4.494,11.881h-1.252l-4.494-11.881H372.92z"/>
	<path stroke="#000000" stroke-miterlimit="10" d="M383.449,84.654V72.773h7.509v0.952h-6.486v4.441h6.011v0.97h-6.011v4.565h6.61
		v0.952H383.449z"/>
	<path stroke="#000000" stroke-miterlimit="10" d="M394.049,74.024v10.63h-1.022V72.773h1.428l6.751,10.576V72.773h1.022v11.881
		h-1.252L394.049,74.024z"/>
	<path fill="#FFFFFF" stroke="#FFFFFF" stroke-miterlimit="10" d="M410.45,74.024v10.63h-1.021V72.773h1.427l6.751,10.576V72.773
		h1.023v11.881h-1.251L410.45,74.024z"/>
	<path fill="#FFFFFF" stroke="#FFFFFF" stroke-miterlimit="10" d="M420.927,79.717v-6.944h1.04v6.839
		c0,2.979,1.093,4.407,3.738,4.407c2.66,0,3.753-1.428,3.753-4.407v-6.839h1.04v6.944c0,3.844-1.852,5.165-4.793,5.165
		C422.761,84.882,420.927,83.561,420.927,79.717z"/>
	<path fill="#FFFFFF" stroke="#FFFFFF" stroke-miterlimit="10" d="M436.728,73.725v10.929h-1.021V73.725h-3.968v-0.952h8.955v0.952
		H436.728z"/>
	<path fill="#FFFFFF" stroke="#FFFFFF" stroke-miterlimit="10" d="M449.424,81.128c0.229,0.616,0.247,1.022,1.252,3.525h-1.094
		l-1.356-3.755c-0.353-0.775-0.899-1.198-1.938-1.198h-3.332v4.953h-1.023V72.773h4.973c2.837,0,3.436,2.044,3.436,3.597
		c0,0.281-0.052,2.449-2.237,2.996C448.843,79.771,448.965,79.929,449.424,81.128z M446.955,78.749c1.939,0,2.38-1.568,2.38-2.362
		c0-1.321-0.634-2.661-2.555-2.661h-3.825v5.023H446.955z"/>
	<path fill="#FFFFFF" stroke="#FFFFFF" stroke-miterlimit="10" d="M452.549,72.773h1.022v11.881h-1.022V72.773z"/>
	<path fill="#FFFFFF" stroke="#FFFFFF" stroke-miterlimit="10" d="M459.973,73.725v10.929h-1.022V73.725h-3.967v-0.952h8.954v0.952
		H459.973z"/>
	<path fill="#FFFFFF" stroke="#FFFFFF" stroke-miterlimit="10" d="M465.354,72.773h1.021v11.881h-1.021V72.773z"/>
	<path fill="#FFFFFF" stroke="#FFFFFF" stroke-miterlimit="10" d="M468.404,78.713c0-3.843,2.151-6.135,5.606-6.135
		s5.588,2.292,5.588,6.135s-2.133,6.169-5.588,6.169S468.404,82.556,468.404,78.713z M469.533,78.713
		c0,2.961,1.464,5.271,4.478,5.271c3.015,0,4.477-2.31,4.477-5.271c0-2.803-1.462-5.236-4.477-5.236
		C470.997,73.477,469.533,75.911,469.533,78.713z"/>
	<path fill="#FFFFFF" stroke="#FFFFFF" stroke-miterlimit="10" d="M482.479,74.024v10.63h-1.023V72.773h1.428l6.752,10.576V72.773
		h1.021v11.881h-1.251L482.479,74.024z"/>
	<path fill="#FFFFFF" stroke="#FFFFFF" stroke-miterlimit="10" d="M503.252,72.579c1.128,0,2.469,0.141,3.297,0.512
		c-0.106,0.3-0.229,0.529-0.334,0.793c-1.041-0.299-2.239-0.334-2.539-0.334c-3.789,0-5.164,2.678-5.164,5.182
		c0,2.503,1.375,5.182,5.164,5.182c0.529,0,1.445,0,2.573-0.334c0.106,0.317,0.212,0.529,0.3,0.793
		c-0.828,0.37-2.169,0.511-3.297,0.511c-3.612,0-5.834-2.731-5.834-6.151S499.64,72.579,503.252,72.579z"/>
	<path fill="#FFFFFF" stroke="#FFFFFF" stroke-miterlimit="10" d="M507.788,78.713c0-3.843,2.151-6.135,5.605-6.135
		c3.455,0,5.588,2.292,5.588,6.135s-2.133,6.169-5.588,6.169C509.939,84.882,507.788,82.556,507.788,78.713z M508.916,78.713
		c0,2.961,1.464,5.271,4.478,5.271c3.015,0,4.478-2.31,4.478-5.271c0-2.803-1.463-5.236-4.478-5.236
		C510.38,73.477,508.916,75.911,508.916,78.713z"/>
	<path fill="#FFFFFF" stroke="#FFFFFF" stroke-miterlimit="10" d="M519.219,84.654l4.936-11.881h1.232l4.937,11.881h-1.075
		l-1.182-2.891h-6.609l-1.164,2.891H519.219z M521.809,80.811h5.905l-2.944-7.086L521.809,80.811z"/>
	<path fill="#FFFFFF" stroke="#FFFFFF" stroke-miterlimit="10" d="M536.162,72.579c1.128,0,2.469,0.141,3.297,0.512
		c-0.106,0.3-0.229,0.529-0.335,0.793c-1.04-0.299-2.238-0.334-2.539-0.334c-3.789,0-5.164,2.678-5.164,5.182
		c0,2.503,1.375,5.182,5.164,5.182c0.53,0,1.445,0,2.574-0.334c0.105,0.317,0.212,0.529,0.3,0.793
		c-0.828,0.37-2.169,0.511-3.297,0.511c-3.613,0-5.835-2.731-5.835-6.151S532.549,72.579,536.162,72.579z"/>
	<path fill="#FFFFFF" stroke="#FFFFFF" stroke-miterlimit="10" d="M542.161,78.889v5.765h-1.023V72.773h1.023v5.147h7.017v-5.147
		h1.021v11.881h-1.021v-5.765H542.161z"/>
	<path fill="#FFFFFF" stroke="#FFFFFF" stroke-miterlimit="10" d="M552.672,72.773h1.022v11.881h-1.022V72.773z"/>
	<path fill="#FFFFFF" stroke="#FFFFFF" stroke-miterlimit="10" d="M557.188,74.024v10.63h-1.023V72.773h1.429l6.751,10.576V72.773
		h1.022v11.881h-1.252L557.188,74.024z"/>
	<path fill="#FFFFFF" stroke="#FFFFFF" stroke-miterlimit="10" d="M574.045,79.524v-0.97h3.474v5.589
		c-0.9,0.492-2.698,0.704-3.95,0.704c-3.93,0-6.345-2.714-6.345-6.134s2.415-6.135,6.345-6.135c1.234,0,2.452,0.159,3.58,0.812
		l-0.44,0.847c-0.848-0.512-2.116-0.706-2.697-0.706c-4.091,0-5.713,2.68-5.713,5.183s1.765,5.164,5.483,5.164
		c0.864,0,1.938-0.158,2.854-0.476v-3.878H574.045z"/>
</g>
</svg>
