<?xml version="1.0" encoding="utf-8"?>
<!-- Generator: Adobe Illustrator 16.0.0, SVG Export Plug-In . SVG Version: 6.00 Build 0)  -->
<!DOCTYPE svg PUBLIC "-//W3C//DTD SVG 1.1//EN" "http://www.w3.org/Graphics/SVG/1.1/DTD/svg11.dtd">
<svg version="1.1" id="Layer_1" xmlns="http://www.w3.org/2000/svg" xmlns:xlink="http://www.w3.org/1999/xlink" x="0px" y="0px"
	 viewBox="0 0 579.931 86.417" enable-background="new 0 0 579.931 86.417"
	 xml:space="preserve">
<image overflow="visible" width="729" height="101" xlink:href="../../../Library/Caches/TemporaryItems/png.png"  transform="matrix(1 0 0 1 -97.0693 -0.5835)">
</image>
<g>
	<defs>
		<rect id="SVGID_1_" x="2.431" y="-0.083" width="590" height="109"/>
	</defs>
	<clipPath id="SVGID_2_">
		<use xlink:href="#SVGID_1_"  overflow="visible"/>
	</clipPath>
	<path clip-path="url(#SVGID_2_)" fill="none" stroke="#46C7EA" stroke-width="2" stroke-miterlimit="10" d="M122.283,29.113
		l-0.013,0.008c-0.006,0-0.011-0.001-0.018-0.001c-1.988,0-3.704,1.09-4.634,2.694l-0.019,0.012l-12.141,21.028l-0.001,0.051
		c-0.454,0.79-0.733,1.69-0.733,2.665c0,0.933,0.259,1.795,0.676,2.559l-0.001,0.063l12.184,21.102l0.044,0.025
		c0.928,1.614,2.649,2.714,4.645,2.714c0.009,0,0.018-0.003,0.026-0.003l0.007,0.004h24.344l0.007-0.004
		c1.963-0.009,3.661-1.079,4.592-2.657l0.016-0.01L163.22,58.65c0.602-0.868,0.958-1.918,0.958-3.054
		c0-0.962-0.274-1.854-0.718-2.636l0.001-0.047l-12.2-21.128l-0.017-0.011c-0.935-1.583-2.641-2.655-4.613-2.655
		c-0.022,0-0.041,0.005-0.062,0.005l-0.02-0.011H122.283z"/>
	<path clip-path="url(#SVGID_2_)" fill="none" stroke="#46C7EA" stroke-width="2" stroke-miterlimit="10" d="M225.565,29.113
		l-0.013,0.008c-0.006,0-0.011-0.001-0.018-0.001c-1.988,0-3.704,1.09-4.634,2.694l-0.019,0.012l-12.141,21.028l-0.001,0.051
		c-0.454,0.79-0.733,1.69-0.733,2.665c0,0.933,0.259,1.795,0.676,2.559l-0.001,0.063l12.184,21.102l0.044,0.025
		c0.928,1.614,2.649,2.714,4.645,2.714c0.009,0,0.018-0.003,0.026-0.003l0.007,0.004h24.344l0.007-0.004
		c1.963-0.009,3.661-1.079,4.592-2.657l0.016-0.01l11.957-20.713c0.602-0.868,0.958-1.918,0.958-3.054
		c0-0.962-0.274-1.854-0.718-2.636l0.001-0.047l-12.2-21.128l-0.017-0.011c-0.935-1.583-2.641-2.655-4.613-2.655
		c-0.022,0-0.041,0.005-0.062,0.005l-0.02-0.011H225.565z"/>
	<path clip-path="url(#SVGID_2_)" fill="none" stroke="#46C7EA" stroke-width="2" stroke-miterlimit="10" d="M434.065,29.113
		l-0.014,0.008c-0.006,0-0.011-0.001-0.018-0.001c-1.987,0-3.703,1.09-4.634,2.694l-0.019,0.012l-12.141,21.028l-0.002,0.051
		c-0.453,0.79-0.732,1.69-0.732,2.665c0,0.933,0.259,1.795,0.676,2.559l-0.001,0.063l12.184,21.102l0.044,0.025
		c0.928,1.614,2.648,2.714,4.645,2.714c0.009,0,0.018-0.003,0.025-0.003l0.008,0.004h24.344l0.007-0.004
		c1.964-0.009,3.661-1.079,4.592-2.657l0.017-0.01l11.957-20.713c0.602-0.868,0.958-1.918,0.958-3.054
		c0-0.962-0.274-1.854-0.718-2.636l0.001-0.047l-12.2-21.128l-0.018-0.011c-0.935-1.583-2.641-2.655-4.612-2.655
		c-0.022,0-0.04,0.005-0.062,0.005l-0.021-0.011H434.065z"/>
	<path clip-path="url(#SVGID_2_)" fill="none" stroke="#46C7EA" stroke-width="2" stroke-miterlimit="10" d="M174.065-1.387
		l-0.013,0.008c-0.006,0-0.011-0.001-0.018-0.001c-1.988,0-3.704,1.09-4.634,2.694l-0.019,0.012l-12.141,21.028l-0.001,0.051
		c-0.454,0.79-0.733,1.69-0.733,2.665c0,0.933,0.259,1.795,0.676,2.559l-0.001,0.063l12.184,21.102l0.044,0.025
		c0.928,1.614,2.649,2.714,4.645,2.714c0.009,0,0.018-0.003,0.026-0.003l0.007,0.004h24.344l0.007-0.004
		c1.963-0.009,3.661-1.079,4.592-2.657l0.016-0.01l11.957-20.713c0.602-0.868,0.958-1.918,0.958-3.054
		c0-0.962-0.274-1.854-0.718-2.636l0.001-0.047l-12.2-21.128l-0.017-0.011c-0.935-1.583-2.641-2.655-4.613-2.655
		c-0.022,0-0.041,0.005-0.062,0.005l-0.02-0.011H174.065z"/>
	<path clip-path="url(#SVGID_2_)" fill="none" stroke="#46C7EA" stroke-width="2" stroke-miterlimit="10" d="M70.565-1.387
		l-0.013,0.008c-0.006,0-0.011-0.001-0.018-0.001c-1.988,0-3.704,1.09-4.634,2.694l-0.019,0.012L53.741,22.354l-0.001,0.051
		c-0.454,0.79-0.733,1.69-0.733,2.665c0,0.933,0.259,1.795,0.676,2.559l-0.001,0.063l12.184,21.102l0.044,0.025
		c0.928,1.614,2.649,2.714,4.645,2.714c0.009,0,0.018-0.003,0.026-0.003l0.007,0.004h24.344l0.007-0.004
		c1.963-0.009,3.661-1.079,4.592-2.657l0.016-0.01l11.957-20.713c0.602-0.868,0.958-1.918,0.958-3.054
		c0-0.962-0.274-1.854-0.718-2.636l0.001-0.047l-12.2-21.128l-0.017-0.011c-0.935-1.583-2.641-2.655-4.613-2.655
		c-0.022,0-0.041,0.005-0.062,0.005l-0.02-0.011H70.565z"/>
	<path clip-path="url(#SVGID_2_)" fill="none" stroke="#46C7EA" stroke-width="2" stroke-miterlimit="10" d="M18.559-32
		l-0.013,0.008c-0.006,0-0.011-0.001-0.018-0.001c-1.988,0-3.704,1.09-4.634,2.694l-0.019,0.012L1.734-8.259L1.733-8.208
		C1.279-7.418,1-6.518,1-5.543c0,0.933,0.259,1.795,0.676,2.559L1.675-2.921L13.858,18.18l0.044,0.025
		c0.928,1.614,2.649,2.714,4.645,2.714c0.009,0,0.018-0.003,0.026-0.003l0.007,0.004h24.344l0.007-0.004
		c1.963-0.009,3.661-1.079,4.592-2.657l0.016-0.01L59.496-2.463c0.602-0.868,0.958-1.918,0.958-3.054
		c0-0.962-0.274-1.854-0.718-2.636L59.737-8.2l-12.2-21.128l-0.017-0.011c-0.935-1.583-2.641-2.655-4.613-2.655
		c-0.022,0-0.041,0.005-0.062,0.005L42.825-32H18.559z"/>
	<path clip-path="url(#SVGID_2_)" fill="none" stroke="#46C7EA" stroke-width="2" stroke-miterlimit="10" d="M122.059-32
		l-0.013,0.008c-0.006,0-0.011-0.001-0.018-0.001c-1.988,0-3.704,1.09-4.634,2.694l-0.019,0.012L105.234-8.259l-0.001,0.051
		c-0.454,0.79-0.733,1.69-0.733,2.665c0,0.933,0.259,1.795,0.676,2.559l-0.001,0.063l12.184,21.102l0.044,0.025
		c0.928,1.614,2.649,2.714,4.645,2.714c0.009,0,0.018-0.003,0.026-0.003l0.007,0.004h24.344l0.007-0.004
		c1.963-0.009,3.661-1.079,4.592-2.657l0.016-0.01l11.957-20.713c0.602-0.868,0.958-1.918,0.958-3.054
		c0-0.962-0.274-1.854-0.718-2.636l0.001-0.047l-12.2-21.128l-0.017-0.011c-0.935-1.583-2.641-2.655-4.613-2.655
		c-0.022,0-0.041,0.005-0.062,0.005L146.325-32H122.059z"/>
	<path clip-path="url(#SVGID_2_)" fill="none" stroke="#46C7EA" stroke-width="2" stroke-miterlimit="10" d="M226.059-32
		l-0.013,0.008c-0.006,0-0.011-0.001-0.018-0.001c-1.988,0-3.704,1.09-4.634,2.694l-0.019,0.012L209.234-8.259l-0.001,0.051
		c-0.454,0.79-0.733,1.69-0.733,2.665c0,0.933,0.259,1.795,0.676,2.559l-0.001,0.063l12.184,21.102l0.044,0.025
		c0.928,1.614,2.649,2.714,4.645,2.714c0.009,0,0.018-0.003,0.026-0.003l0.007,0.004h24.344l0.007-0.004
		c1.963-0.009,3.661-1.079,4.592-2.657l0.016-0.01l11.957-20.713c0.602-0.868,0.958-1.918,0.958-3.054
		c0-0.962-0.274-1.854-0.718-2.636l0.001-0.047l-12.2-21.128l-0.017-0.011c-0.935-1.583-2.641-2.655-4.613-2.655
		c-0.022,0-0.041,0.005-0.062,0.005L250.325-32H226.059z"/>
	<path clip-path="url(#SVGID_2_)" fill="none" stroke="#46C7EA" stroke-width="2" stroke-miterlimit="10" d="M330.059-32
		l-0.013,0.008c-0.007,0-0.012-0.001-0.018-0.001c-1.988,0-3.705,1.09-4.635,2.694l-0.019,0.012L313.233-8.259v0.051
		c-0.454,0.79-0.733,1.69-0.733,2.665c0,0.933,0.259,1.795,0.676,2.559l-0.001,0.063l12.184,21.102l0.044,0.025
		c0.929,1.614,2.649,2.714,4.645,2.714c0.009,0,0.018-0.003,0.026-0.003l0.006,0.004h24.345l0.007-0.004
		c1.963-0.009,3.66-1.079,4.592-2.657l0.016-0.01l11.957-20.713c0.603-0.868,0.959-1.918,0.959-3.054
		c0-0.962-0.274-1.854-0.718-2.636l0.001-0.047l-12.2-21.128l-0.017-0.011c-0.936-1.583-2.641-2.655-4.613-2.655
		c-0.021,0-0.041,0.005-0.062,0.005L354.325-32H330.059z"/>
	<path clip-path="url(#SVGID_2_)" fill="none" stroke="#46C7EA" stroke-width="2" stroke-miterlimit="10" d="M434.059-32
		l-0.013,0.008c-0.007,0-0.012-0.001-0.018-0.001c-1.988,0-3.705,1.09-4.635,2.694l-0.019,0.012L417.233-8.259v0.051
		c-0.454,0.79-0.733,1.69-0.733,2.665c0,0.933,0.259,1.795,0.676,2.559l-0.001,0.063l12.184,21.102l0.044,0.025
		c0.929,1.614,2.649,2.714,4.645,2.714c0.009,0,0.018-0.003,0.026-0.003l0.006,0.004h24.345l0.007-0.004
		c1.963-0.009,3.66-1.079,4.592-2.657l0.016-0.01l11.957-20.713c0.603-0.868,0.959-1.918,0.959-3.054
		c0-0.962-0.274-1.854-0.718-2.636l0.001-0.047l-12.2-21.128l-0.017-0.011c-0.936-1.583-2.641-2.655-4.613-2.655
		c-0.021,0-0.041,0.005-0.062,0.005L458.325-32H434.059z"/>
	<path clip-path="url(#SVGID_2_)" fill="none" stroke="#46C7EA" stroke-width="2" stroke-miterlimit="10" d="M538.059-32
		l-0.013,0.008c-0.007,0-0.012-0.001-0.018-0.001c-1.988,0-3.705,1.09-4.635,2.694l-0.019,0.012L521.233-8.259v0.051
		c-0.454,0.79-0.733,1.69-0.733,2.665c0,0.933,0.259,1.795,0.676,2.559l-0.001,0.063l12.184,21.102l0.044,0.025
		c0.929,1.614,2.649,2.714,4.645,2.714c0.009,0,0.018-0.003,0.026-0.003l0.006,0.004h24.345l0.007-0.004
		c1.963-0.009,3.66-1.079,4.592-2.657l0.016-0.01l11.957-20.713c0.603-0.868,0.959-1.918,0.959-3.054
		c0-0.962-0.274-1.854-0.718-2.636l0.001-0.047l-12.2-21.128l-0.017-0.011c-0.936-1.583-2.641-2.655-4.613-2.655
		c-0.021,0-0.041,0.005-0.062,0.005L562.325-32H538.059z"/>
	<path clip-path="url(#SVGID_2_)" fill="none" stroke="#46C7EA" stroke-width="2" stroke-miterlimit="10" d="M277.565-1.387
		l-0.014,0.008c-0.006,0-0.011-0.001-0.018-0.001c-1.987,0-3.703,1.09-4.634,2.694l-0.019,0.012l-12.141,21.028l-0.001,0.051
		c-0.454,0.79-0.733,1.69-0.733,2.665c0,0.933,0.259,1.795,0.676,2.559l-0.001,0.063l12.184,21.102l0.044,0.025
		c0.928,1.614,2.648,2.714,4.645,2.714c0.009,0,0.018-0.003,0.025-0.003l0.008,0.004h24.344l0.007-0.004
		c1.964-0.009,3.661-1.079,4.592-2.657l0.017-0.01l11.957-20.713c0.602-0.868,0.958-1.918,0.958-3.054
		c0-0.962-0.274-1.854-0.718-2.636l0.001-0.047l-12.2-21.128l-0.018-0.011c-0.935-1.583-2.641-2.655-4.612-2.655
		c-0.022,0-0.04,0.005-0.062,0.005l-0.021-0.011H277.565z"/>
	<path clip-path="url(#SVGID_2_)" fill="none" stroke="#46C7EA" stroke-width="2" stroke-miterlimit="10" d="M381.565-1.387
		l-0.014,0.008c-0.006,0-0.011-0.001-0.018-0.001c-1.987,0-3.703,1.09-4.634,2.694l-0.019,0.012l-12.141,21.028l-0.002,0.051
		c-0.453,0.79-0.732,1.69-0.732,2.665c0,0.933,0.259,1.795,0.676,2.559l-0.001,0.063l12.184,21.102l0.044,0.025
		c0.928,1.614,2.648,2.714,4.645,2.714c0.009,0,0.018-0.003,0.025-0.003l0.008,0.004h24.344l0.007-0.004
		c1.964-0.009,3.661-1.079,4.592-2.657l0.017-0.01l11.957-20.713c0.602-0.868,0.958-1.918,0.958-3.054
		c0-0.962-0.274-1.854-0.718-2.636l0.001-0.047l-12.2-21.128l-0.018-0.011c-0.935-1.583-2.641-2.655-4.612-2.655
		c-0.022,0-0.04,0.005-0.062,0.005l-0.021-0.011H381.565z"/>
	<path clip-path="url(#SVGID_2_)" fill="none" stroke="#46C7EA" stroke-width="2" stroke-miterlimit="10" d="M485.562-1.387
		l-0.014,0.008c-0.006,0-0.011-0.001-0.018-0.001c-1.987,0-3.703,1.09-4.634,2.694l-0.019,0.012l-12.141,21.028l-0.002,0.051
		c-0.453,0.79-0.732,1.69-0.732,2.665c0,0.933,0.259,1.795,0.676,2.559l-0.001,0.063l12.184,21.102l0.044,0.025
		c0.928,1.614,2.648,2.714,4.645,2.714c0.009,0,0.018-0.003,0.025-0.003l0.008,0.004h24.344l0.007-0.004
		c1.964-0.009,3.661-1.079,4.592-2.657l0.017-0.01L526.5,28.15c0.602-0.868,0.958-1.918,0.958-3.054
		c0-0.962-0.274-1.854-0.718-2.636l0.001-0.047l-12.2-21.128l-0.018-0.011c-0.935-1.583-2.641-2.655-4.612-2.655
		c-0.022,0-0.04,0.005-0.062,0.005l-0.021-0.011H485.562z"/>
</g>
</svg>
