<?xml version="1.0" encoding="utf-8"?>
<!-- Generator: Adobe Illustrator 16.0.0, SVG Export Plug-In . SVG Version: 6.00 Build 0)  -->
<!DOCTYPE svg PUBLIC "-//W3C//DTD SVG 1.1//EN" "http://www.w3.org/Graphics/SVG/1.1/DTD/svg11.dtd">
<svg version="1.1" id="Layer_1" xmlns="http://www.w3.org/2000/svg" xmlns:xlink="http://www.w3.org/1999/xlink" x="0px" y="0px" viewBox="0 0 365.958 324.114" enable-background="new 0 0 365.958 324.114"
	 xml:space="preserve">
<path fill="#091F21" d="M110.11,2.196l-0.081,0.047c-0.038,0-0.07-0.009-0.107-0.009c-11.979,0-22.321,6.573-27.927,16.241
	l-0.113,0.067L8.715,145.267l-0.003,0.305c-2.737,4.758-4.417,10.19-4.417,16.061c0,5.619,1.559,10.815,4.073,15.426l-0.009,0.375
	l73.425,127.165l0.267,0.158c5.591,9.727,15.961,16.353,27.986,16.353c0.053,0,0.107-0.015,0.157-0.015l0.043,0.021h146.71
	l0.038-0.021c11.833-0.054,22.063-6.507,27.675-16.019l0.095-0.059l72.063-124.821c3.625-5.233,5.772-11.559,5.772-18.402
	c0-5.805-1.654-11.173-4.323-15.883l0.006-0.288L284.748,18.296l-0.101-0.062c-5.638-9.539-15.916-16.007-27.801-16.007
	c-0.132,0-0.246,0.035-0.376,0.035l-0.117-0.067H110.11z"/>
<g>
	<path fill="#FFFFFF" d="M146.767,78.55H74.083v166.213h20.32v-64.191h54.021c44.695,0,45.206-47.451,45.206-49.474
		C193.629,106.86,181.366,78.55,146.767,78.55z M94.403,97.915h46.445c29.24,0,31.521,25.585,31.521,33.424
		c0,6.952-1.99,29.628-27.495,29.628H94.403V97.915z"/>
	<g>
		<path fill="#00BBE3" d="M197.202,192.848v51.892h19.365v-45.97c0-29.25,25.581-31.521,33.418-31.521
			c6.96,0,29.635,1.989,29.635,27.496v49.994h19.605V191.19c0-44.698-47.454-45.211-49.478-45.211
			C225.508,145.979,197.202,158.253,197.202,192.848z"/>
	</g>
</g>
</svg>
