<?xml version="1.0" encoding="utf-8"?>
<!-- Generator: Adobe Illustrator 16.0.0, SVG Export Plug-In . SVG Version: 6.00 Build 0)  -->
<!DOCTYPE svg PUBLIC "-//W3C//DTD SVG 1.1//EN" "http://www.w3.org/Graphics/SVG/1.1/DTD/svg11.dtd">
<svg version="1.1" id="Layer_1" xmlns="http://www.w3.org/2000/svg" xmlns:xlink="http://www.w3.org/1999/xlink" x="0px" y="0px"
	 width="735.321px" height="170.793px" viewBox="0 0 735.321 170.793" enable-background="new 0 0 735.321 170.793"
	 xml:space="preserve">
<g>
	<g>
		<path fill="#091F21" d="M27.638,106.331H0v63.202h7.725v-24.406h20.543c16.999,0,17.194-18.043,17.194-18.811
			C45.462,117.096,40.793,106.331,27.638,106.331z M7.725,113.695h17.662c11.123,0,11.988,9.728,11.988,12.708
			c0,2.643-0.753,11.269-10.456,11.269H7.725V113.695z"/>
		<path fill="#091F21" d="M69.676,122.271c-5.026,0.104-8.914,1.772-11.782,5.078v-3.908h-7.273v46.091h7.816v-28.27
			c0-8.24,5.356-11.175,10.364-11.175h3.685v-7.816H69.676z"/>
		<path fill="#091F21" d="M93.754,122.271c-12.266,0-21.518,10.411-21.518,24.216c0,14.258,9.257,24.216,22.51,24.216
			c6.328,0,12.427-1.16,16.316-3.103l1.06-0.529l-2.658-6.156l-1.124,0.437c-5.59,2.173-9.583,2.173-10.897,2.173l-1.08-0.008
			c-9.144,0-15.428-5.528-16-13.889h34.667l0.136-1.095c0.099-0.765,0.103-1.815,0.103-2.677
			C115.27,131.749,106.62,122.271,93.754,122.271z M93.754,129.367c6.298,0,13.043,3.536,13.653,13.348h-26.94
			C81.067,135.36,86.908,129.367,93.754,129.367z"/>
		<path fill="#091F21" d="M155.11,167.188c-0.2-0.646-0.322-1.214-0.454-1.805c-0.162-0.729-0.328-1.489-0.626-2.43l-0.375-1.196
			l-1.198,0.38c-4.491,1.429-9.265,1.471-9.797,1.471c-10.281,0-15.5-5.76-15.5-17.12c0-11.3,5.219-17.03,15.5-17.03
			c1.643,0,5.883,0.134,9.797,1.381l1.265,0.402l1.672-6.554l-0.983-0.421c-4.197-1.798-10.119-1.993-12.47-1.993
			c-14.103,0-22.864,9.278-22.864,24.216c0,14.992,8.761,24.306,22.864,24.306c4.766,0,9.426-0.778,12.47-2.083l1.037-0.444
			L155.11,167.188z"/>
		<g>
			<rect x="160.774" y="123.442" fill="#091F21" width="7.819" height="46.091"/>
			<rect x="160.774" y="106.331" fill="#091F21" width="7.819" height="10.248"/>
		</g>
		<path fill="#091F21" d="M199.487,145.136l-9.313-3.524c-6.045-2.082-7.263-4.124-7.263-6.743c0-3.394,3.318-5.502,8.66-5.502
			c2.906,0,6.661,1.137,11.146,3.378l1.109,0.555l3.163-6.187l-0.987-0.605c-4.624-2.831-9.833-4.328-15.062-4.328
			c-8.175,0-14.494,4.354-15.745,10.933c-0.742,6.758,1.868,11.149,8.542,14.27c1.526,0.583,3.056,1.149,4.566,1.705
			c3.399,1.255,6.615,2.442,9.328,3.673c1.626,0.731,4.169,2.575,2.957,6.58c-1.344,3.279-5.542,4.447-9.016,4.447
			c-4.702,0-9.085-2.332-13.122-4.853l-1.094-0.685l-3.553,6.147l0.908,0.663c5.123,3.751,11.201,5.733,17.577,5.733
			c9.598,0,16.562-5.979,16.562-14.22C208.85,151.776,205.36,147.505,199.487,145.136z"/>
		<g>
			<rect x="214.46" y="123.442" fill="#091F21" width="7.813" height="46.091"/>
			<rect x="214.46" y="106.331" fill="#091F21" width="7.813" height="10.248"/>
		</g>
		<path fill="#091F21" d="M249.39,122.271c-13.546,0-21.961,9.278-21.961,24.216c0,14.992,8.416,24.306,21.961,24.306
			c13.55,0,21.966-9.313,21.966-24.306C271.355,131.549,262.939,122.271,249.39,122.271z M249.39,163.97
			c-9.783,0-14.235-9.063-14.235-17.482c0-8.376,4.452-17.392,14.235-17.392c9.348,0,14.239,8.749,14.239,17.392
			C263.629,155.174,258.737,163.97,249.39,163.97z"/>
		<path fill="#091F21" d="M297.04,122.271c-3.348,0-9.035,0.81-13.341,5.616v-4.446h-7.184v46.091h7.813v-27.278
			c0-12.831,12.881-12.979,13.43-12.979c7.134,0,10.456,4.209,10.456,13.248v27.008h7.819v-27.008
			C316.034,128.707,310,122.271,297.04,122.271z"/>
		<polygon fill="#FFFFFF" points="366.583,106.331 366.583,157.332 334.022,106.331 324.792,106.331 324.792,169.533 
			332.517,169.533 332.517,118.187 365.98,169.533 374.308,169.533 374.308,106.331 		"/>
		<path fill="#FFFFFF" d="M414.77,123.442v28.719c0,10.79-9.592,11.627-12.529,11.627c-8.177,0-11.356-3.739-11.356-13.338v-27.008
			h-7.813v27.008c0,13.628,6.21,20.253,18.988,20.253c0.407,0,8.475-0.061,13.341-4.533v3.363h7.184v-46.091H414.77z"/>
		<path fill="#FFFFFF" d="M453.703,163.174l-1.368,0.392c-0.95,0.271-1.951,0.404-3.076,0.404c-6.585,0-6.585-3.622-6.585-8.205
			v-25.589h10.628v-6.734h-10.628v-11.618h-7.727v11.618h-7.473v6.734h7.473v25.857c0,12.776,7.422,14.685,11.85,14.685
			c0.299,0,0.567-0.008,0.749-0.015c0.938,0,3.429,0,6.2-1.286l0.851-0.396L453.703,163.174z"/>
		<path fill="#FFFFFF" d="M478.688,122.271c-5.03,0.104-8.919,1.772-11.787,5.078v-3.908h-7.272v46.091h7.815v-28.27
			c0-8.24,5.355-11.175,10.363-11.175h3.685v-7.816H478.688z"/>
		<g>
			<rect x="485.476" y="123.442" fill="#FFFFFF" width="7.819" height="46.091"/>
			<rect x="485.476" y="106.331" fill="#FFFFFF" width="7.819" height="10.248"/>
		</g>
		<path fill="#FFFFFF" d="M524.398,163.174l-1.364,0.392c-0.947,0.271-1.95,0.404-3.073,0.404c-6.588,0-6.588-3.622-6.588-8.205
			v-25.589h10.628v-6.734h-10.628v-11.618h-7.727v11.618h-7.47v6.734h7.47v25.857c0,12.776,7.429,14.685,11.851,14.685
			c0.304,0,0.572-0.008,0.754-0.015c0.938,0,3.425,0,6.2-1.286l0.852-0.396L524.398,163.174z"/>
		<g>
			<rect x="529.88" y="123.442" fill="#FFFFFF" width="7.813" height="46.091"/>
			<rect x="529.88" y="106.331" fill="#FFFFFF" width="7.813" height="10.248"/>
		</g>
		<path fill="#FFFFFF" d="M564.81,122.271c-13.544,0-21.964,9.278-21.964,24.216c0,14.992,8.42,24.306,21.964,24.306
			c13.552,0,21.968-9.313,21.968-24.306C586.777,131.549,578.361,122.271,564.81,122.271z M564.81,163.97
			c-9.781,0-14.239-9.063-14.239-17.482c0-8.376,4.458-17.392,14.239-17.392c9.349,0,14.241,8.749,14.241,17.392
			C579.051,155.174,574.158,163.97,564.81,163.97z"/>
		<path fill="#FFFFFF" d="M612.456,122.271c-3.343,0-9.032,0.811-13.337,5.616v-4.446h-7.182v46.091h7.813v-27.278
			c0-12.831,12.88-12.979,13.427-12.979c7.135,0,10.459,4.209,10.459,13.248v27.008h7.813v-27.008
			C631.45,128.707,625.415,122.271,612.456,122.271z"/>
	</g>
	<path fill="#091F21" d="M651.212,0l-0.026,0.016c-0.013,0-0.023-0.004-0.036-0.004c-3.988,0-7.431,2.188-9.298,5.407l-0.037,0.022
		l-24.36,42.191l-0.001,0.102c-0.911,1.583-1.471,3.393-1.471,5.347c0,1.87,0.52,3.601,1.356,5.136l-0.003,0.125l24.445,42.337
		l0.089,0.053c1.861,3.238,5.313,5.444,9.317,5.444c0.018,0,0.035-0.005,0.052-0.005l0.015,0.007h48.844l0.013-0.007
		c3.939-0.019,7.346-2.167,9.215-5.333l0.031-0.02l23.992-41.557c1.207-1.742,1.921-3.848,1.921-6.127
		c0-1.932-0.55-3.719-1.439-5.287l0.002-0.097L709.354,5.359l-0.033-0.02c-1.877-3.176-5.299-5.33-9.256-5.33
		c-0.044,0-0.082,0.012-0.125,0.012L699.9,0H651.212z"/>
	<g>
		<path fill="#FFFFFF" d="M663.416,25.421h-24.199v55.337h6.766V59.388h17.985c14.88,0,15.051-15.798,15.051-16.472
			C679.019,34.846,674.936,25.421,663.416,25.421z M645.982,31.868h15.463c9.734,0,10.494,8.518,10.494,11.128
			c0,2.314-0.662,9.864-9.154,9.864h-16.803V31.868z"/>
		<g>
			<path fill="#00BBE3" d="M680.207,63.474v17.277h6.448V65.446c0-9.738,8.517-10.495,11.126-10.495
				c2.317,0,9.865,0.662,9.865,9.155v16.645h6.527V62.922c0-14.881-15.798-15.052-16.472-15.052
				C689.631,47.87,680.207,51.957,680.207,63.474z"/>
		</g>
	</g>
</g>
</svg>
